<svg xmlns="http://www.w3.org/2000/svg" viewBox="0 0 48 48"><path fill="#253b80" d="M40.6,14.5c-1.4-1.6-4.1-2.2-7.6-2.2H21.1c-0.8,0-1.5,0.6-1.7,1.4l-4.2,25.7c-0.1,0.9,0.5,1.7,1.4,1.7h6.1l1.5-9.1l0.1-0.6c0.1-0.8,0.8-1.4,1.7-1.4h3.6c7.1,0,12.7-2.9,14.2-11.3C43.5,17.4,42.4,15.8,40.6,14.5z"/><path fill="#179bd7" d="M35.3,9.2c-1.4-1.6-4.1-2.2-7.6-2.2H15.8c-0.8,0-1.5,0.6-1.7,1.4l-4.2,25.7c-0.1,0.9,0.5,1.7,1.4,1.7h6.1l1.5-9.1l0.1-0.6c0.1-0.8,0.8-1.4,1.7-1.4h3.6c7.1,0,12.7-2.9,14.2-11.3C38.2,12.1,37.1,10.5,35.3,9.2z"/></svg>
